<svg xmlns="http://www.w3.org/2000/svg" xmlns:xlink="http://www.w3.org/1999/xlink" version="1.1" width="256" height="256" viewBox="0 0 256 256" xml:space="preserve">
<g style="stroke: none; stroke-width: 0; stroke-dasharray: none; stroke-linecap: butt; stroke-linejoin: miter; stroke-miterlimit: 10; fill: none; fill-rule: nonzero; opacity: 1;" transform="translate(1.4065934065934016 1.4065934065934016) scale(2.81 2.81)">
	<path d="M 45 89.998 c -0.867 0 -1.734 -0.137 -2.559 -0.41 c -19.586 -6.506 -32.241 -22.036 -32.241 -39.566 V 18.234 c 0 -2.718 1.936 -5.043 4.603 -5.529 l 0 0 c 10.332 -1.879 19.341 -5.76 26.775 -11.534 c 2.014 -1.564 4.828 -1.564 6.843 0 c 7.435 5.774 16.442 9.655 26.775 11.534 c 2.666 0.485 4.602 2.811 4.602 5.529 v 31.788 c 0 17.53 -12.654 33.061 -32.238 39.566 C 46.734 89.861 45.867 89.998 45 89.998 z M 15.519 16.641 c -0.764 0.139 -1.318 0.809 -1.318 1.593 v 31.788 c 0 15.776 11.58 29.817 29.5 35.77 c 0.837 0.279 1.76 0.277 2.6 0 c 17.919 -5.952 29.498 -19.993 29.498 -35.77 V 18.234 c 0 -0.784 -0.555 -1.455 -1.318 -1.593 c -10.972 -1.996 -20.564 -6.138 -28.512 -12.31 c -0.57 -0.441 -1.366 -0.442 -1.937 0 C 36.084 10.503 26.491 14.645 15.519 16.641 L 15.519 16.641 z" style="stroke: none; stroke-width: 1; stroke-dasharray: none; stroke-linecap: butt; stroke-linejoin: miter; stroke-miterlimit: 10; fill: rgb(0,0,0); fill-rule: nonzero; opacity: 1;" transform=" matrix(1 0 0 1 0 0) " stroke-linecap="round"/>
	<path d="M 46.465 79.562 c -0.838 0 -1.619 -0.531 -1.898 -1.37 c -0.348 -1.049 0.219 -2.181 1.268 -2.529 c 1.839 -0.61 3.625 -1.353 5.305 -2.204 c 10.5 -5.313 16.768 -14.472 16.768 -24.501 c 0 -1.104 0.896 -2 2 -2 s 2 0.896 2 2 c 0 11.568 -7.088 22.063 -18.96 28.069 c -1.856 0.94 -3.826 1.759 -5.852 2.433 C 46.886 79.528 46.674 79.562 46.465 79.562 z" style="stroke: none; stroke-width: 1; stroke-dasharray: none; stroke-linecap: butt; stroke-linejoin: miter; stroke-miterlimit: 10; fill: rgb(0,0,0); fill-rule: nonzero; opacity: 1;" transform=" matrix(1 0 0 1 0 0) " stroke-linecap="round"/>
	<path d="M 20.093 35.323 c -1.104 0 -2 -0.896 -2 -2 v -8.505 c 0 -2.297 1.636 -4.262 3.889 -4.672 c 4.857 -0.883 9.342 -2.354 13.33 -4.37 c 0.984 -0.499 2.188 -0.104 2.687 0.882 c 0.499 0.985 0.104 2.188 -0.882 2.687 c -4.332 2.191 -9.183 3.784 -14.418 4.736 c -0.351 0.064 -0.605 0.374 -0.605 0.736 v 8.505 C 22.093 34.428 21.198 35.323 20.093 35.323 z" style="stroke: none; stroke-width: 1; stroke-dasharray: none; stroke-linecap: butt; stroke-linejoin: miter; stroke-miterlimit: 10; fill: rgb(0,0,0); fill-rule: nonzero; opacity: 1;" transform=" matrix(1 0 0 1 0 0) " stroke-linecap="round"/>
	<path d="M 69.907 42.364 c -1.104 0 -2 -0.896 -2 -2 V 27.051 c 0 -1.104 0.896 -2 2 -2 s 2 0.896 2 2 v 13.313 C 71.907 41.469 71.012 42.364 69.907 42.364 z" style="stroke: none; stroke-width: 1; stroke-dasharray: none; stroke-linecap: butt; stroke-linejoin: miter; stroke-miterlimit: 10; fill: rgb(0,0,0); fill-rule: nonzero; opacity: 1;" transform=" matrix(1 0 0 1 0 0) " stroke-linecap="round"/>
	<path d="M 20.093 47.767 c -1.104 0 -2 -0.896 -2 -2 v -5.22 c 0 -1.104 0.896 -2 2 -2 s 2 0.896 2 2 v 5.22 C 22.093 46.871 21.198 47.767 20.093 47.767 z" style="stroke: none; stroke-width: 1; stroke-dasharray: none; stroke-linecap: butt; stroke-linejoin: miter; stroke-miterlimit: 10; fill: rgb(0,0,0); fill-rule: nonzero; opacity: 1;" transform=" matrix(1 0 0 1 0 0) " stroke-linecap="round"/>
</g>
</svg>